<?xml version="1.0" encoding="UTF-8"?>
<svg xmlns="http://www.w3.org/2000/svg" width="70" height="70" viewBox="0 0 70 70" fill="none">
  <g id="FIRNA">
    <mask id="mask0_89_1279" style="mask-type:alpha" maskUnits="userSpaceOnUse" x="0" y="0" width="70" height="70">
      <path id="Vector" d="M58 0H12C5.37258 0 0 5.37258 0 12V58C0 64.6274 5.37258 70 12 70H58C64.6274 70 70 64.6274 70 58V12C70 5.37258 64.6274 0 58 0Z" fill="#C72328"></path>
    </mask>
    <g mask="url(#mask0_89_1279)">
      <g id="Clip path group">
        <mask id="mask1_89_1279" style="mask-type:luminance" maskUnits="userSpaceOnUse" x="0" y="0" width="121" height="70">
          <g id="clippath">
            <path id="Vector_2" d="M120.065 0H0V70H120.065V0Z" fill="white"></path>
          </g>
        </mask>
        <g mask="url(#mask1_89_1279)">
          <g id="Group">
            <path id="Vector_3" d="M120.065 64.5244H0V70.0027H120.065V64.5244Z" fill="#CB001C"></path>
            <path id="Vector_4" d="M120.065 59.3467H0V64.5206H120.065V59.3467Z" fill="white"></path>
            <path id="Vector_5" d="M120.065 53.8701H0V59.3484H120.065V53.8701Z" fill="#CB001C"></path>
            <path id="Vector_6" d="M120.065 48.6924H0V53.8663H120.065V48.6924Z" fill="white"></path>
            <path id="Vector_7" d="M120.065 42.9102H0V48.6928H120.065V42.9102Z" fill="#CB001C"></path>
            <path id="Vector_8" d="M120.065 37.4346H0V42.9128H120.065V37.4346Z" fill="white"></path>
            <path id="Vector_9" d="M120.065 32.2627H0V37.4366H120.065V32.2627Z" fill="#CB001C"></path>
            <path id="Vector_10" d="M120.065 26.7852H0V32.2634H120.065V26.7852Z" fill="white"></path>
            <path id="Vector_11" d="M120.065 21.6084H0V26.7823H120.065V21.6084Z" fill="#CB001C"></path>
            <path id="Vector_12" d="M120.065 16.1309H0V21.6091H120.065V16.1309Z" fill="white"></path>
            <path id="Vector_13" d="M120.065 10.6543H0V16.1326H120.065V10.6543Z" fill="#CB001C"></path>
            <path id="Vector_14" d="M120.065 5.17188H0V10.6501H120.065V5.17188Z" fill="white"></path>
            <path id="Vector_15" d="M120.065 0H0V5.17391H120.065V0Z" fill="#CB001C"></path>
            <path id="Vector_16" d="M54.7826 0H0V37.4348H54.7826V0Z" fill="#2A3560"></path>
            <path id="Vector_17" d="M4.87182 3.95605L5.32834 5.47779H6.85008L5.63269 6.39084L6.08921 7.60823L4.87182 6.99953L3.8066 7.60823L4.11095 6.39084L2.89355 5.47779H4.41529L4.87182 3.95605Z" fill="white"></path>
            <path id="Vector_18" d="M4.87182 10.3486L5.32834 11.8704H6.85008L5.63269 12.7834L6.08921 14.3052L4.87182 13.3921L3.8066 14.3052L4.11095 12.7834L2.89355 11.8704H4.41529L4.87182 10.3486Z" fill="white"></path>
            <path id="Vector_19" d="M4.87182 16.7412L5.32834 17.9586H6.85008L5.63269 18.8716L6.08921 20.3934L4.87182 19.4803L3.8066 20.3934L4.11095 18.8716L2.89355 17.9586H4.41529L4.87182 16.7412Z" fill="white"></path>
            <path id="Vector_20" d="M4.87182 22.8291L5.32834 24.3508H6.85008L5.63269 25.2639L6.08921 26.7856L4.87182 25.8726L3.8066 26.7856L4.11095 25.2639L2.89355 24.3508H4.41529L4.87182 22.8291Z" fill="white"></path>
            <path id="Vector_21" d="M4.87182 29.5215L5.32834 30.7389H6.85008L5.63269 31.6519L6.08921 33.1737L4.87182 32.2606L3.8066 33.1737L4.11095 31.6519L2.89355 30.7389H4.41529L4.87182 29.5215Z" fill="white"></path>
            <path id="Vector_22" d="M9.28002 7.30273L9.73654 8.82447H11.2583L10.0409 9.43317L10.4974 11.2593L9.28002 10.3462L8.2148 11.2593L8.51915 9.43317L7.30176 8.82447H8.8235L9.28002 7.30273Z" fill="white"></path>
            <path id="Vector_23" d="M9.28002 13.6953L9.73654 15.2171H11.2583L10.0409 16.1301L10.4974 17.3475L9.28002 16.7388L8.2148 17.3475L8.51915 16.1301L7.30176 15.2171H8.8235L9.28002 13.6953Z" fill="white"></path>
            <path id="Vector_24" d="M9.28002 20.0879L9.73654 21.6096H11.2583L10.0409 22.2183L10.4974 23.7401L9.28002 22.827L8.2148 23.7401L8.51915 22.2183L7.30176 21.6096H8.8235L9.28002 20.0879Z" fill="white"></path>
            <path id="Vector_25" d="M9.28002 26.1748L9.73654 27.6965H11.2583L10.0409 28.6096L10.4974 30.1313L9.28002 29.2183L8.2148 30.1313L8.51915 28.6096L7.30176 27.6965H8.8235L9.28002 26.1748Z" fill="white"></path>
            <path id="Vector_26" d="M13.6946 3.95605L14.3033 5.47779H15.825L14.4554 6.39084L14.912 7.60823L13.6946 6.99953L12.6294 7.60823L12.9337 6.39084L11.7163 5.47779H13.238L13.6946 3.95605Z" fill="white"></path>
            <path id="Vector_27" d="M13.6946 10.3486L14.3033 11.8704H15.825L14.4554 12.7834L14.912 14.3052L13.6946 13.3921L12.6294 14.3052L12.9337 12.7834L11.7163 11.8704H13.238L13.6946 10.3486Z" fill="white"></path>
            <path id="Vector_28" d="M13.6946 16.7412L14.3033 17.9586H15.825L14.4554 18.8716L14.912 20.3934L13.6946 19.4803L12.6294 20.3934L12.9337 18.8716L11.7163 17.9586H13.238L13.6946 16.7412Z" fill="white"></path>
            <path id="Vector_29" d="M13.6946 22.8291L14.3033 24.3508H15.825L14.4554 25.2639L14.912 26.7856L13.6946 25.8726L12.6294 26.7856L12.9337 25.2639L11.7163 24.3508H13.238L13.6946 22.8291Z" fill="white"></path>
            <path id="Vector_30" d="M13.6946 29.5215L14.3033 30.7389H15.825L14.4554 31.6519L14.912 33.1737L13.6946 32.2606L12.6294 33.1737L12.9337 31.6519L11.7163 30.7389H13.238L13.6946 29.5215Z" fill="white"></path>
            <path id="Vector_31" d="M18.1098 7.30273L18.5663 8.82447H20.088L18.8706 9.43317L19.3272 11.2593L18.1098 10.3462L16.8924 11.2593L17.3489 9.43317L16.2837 8.82447H17.6533L18.1098 7.30273Z" fill="white"></path>
            <path id="Vector_32" d="M18.1098 13.6953L18.5663 15.2171H20.088L18.8706 16.1301L19.3272 17.3475L18.1098 16.7388L16.8924 17.3475L17.3489 16.1301L16.2837 15.2171H17.6533L18.1098 13.6953Z" fill="white"></path>
            <path id="Vector_33" d="M18.1098 20.0879L18.5663 21.6096H20.088L18.8706 22.2183L19.3272 23.7401L18.1098 22.827L16.8924 23.7401L17.3489 22.2183L16.2837 21.6096H17.6533L18.1098 20.0879Z" fill="white"></path>
            <path id="Vector_34" d="M18.1098 26.1748L18.5663 27.6965H20.088L18.8706 28.6096L19.3272 30.1313L18.1098 29.2183L16.8924 30.1313L17.3489 28.6096L16.2837 27.6965H17.6533L18.1098 26.1748Z" fill="white"></path>
            <path id="Vector_35" d="M22.5237 3.95605L22.9802 5.47779H24.5019L23.2845 6.39084L23.7411 7.60823L22.5237 6.99953L21.4585 7.60823L21.915 6.39084L20.5454 5.47779H22.2193L22.5237 3.95605Z" fill="white"></path>
            <path id="Vector_36" d="M22.5237 10.3486L22.9802 11.8704H24.5019L23.2845 12.7834L23.7411 14.3052L22.5237 13.3921L21.4585 14.3052L21.915 12.7834L20.5454 11.8704H22.2193L22.5237 10.3486Z" fill="white"></path>
            <path id="Vector_37" d="M22.5237 16.7412L22.9802 17.9586H24.5019L23.2845 18.8716L23.7411 20.3934L22.5237 19.4803L21.4585 20.3934L21.915 18.8716L20.5454 17.9586H22.2193L22.5237 16.7412Z" fill="white"></path>
            <path id="Vector_38" d="M22.5237 22.8291L22.9802 24.3508H24.5019L23.2845 25.2639L23.7411 26.7856L22.5237 25.8726L21.4585 26.7856L21.915 25.2639L20.5454 24.3508H22.2193L22.5237 22.8291Z" fill="white"></path>
            <path id="Vector_39" d="M22.5237 29.5215L22.9802 30.7389H24.5019L23.2845 31.6519L23.7411 33.1737L22.5237 32.2606L21.4585 33.1737L21.915 31.6519L20.5454 30.7389H22.2193L22.5237 29.5215Z" fill="white"></path>
            <path id="Vector_40" d="M26.9325 7.30273L27.3891 8.82447H28.9108L27.6934 9.43317L28.3021 11.2593L26.9325 10.3462L25.7151 11.2593L26.1717 9.43317L25.1064 8.82447H26.6282L26.9325 7.30273Z" fill="white"></path>
            <path id="Vector_41" d="M26.9325 13.6953L27.3891 15.2171H28.9108L27.6934 16.1301L28.3021 17.3475L26.9325 16.7388L25.7151 17.3475L26.1717 16.1301L25.1064 15.2171H26.6282L26.9325 13.6953Z" fill="white"></path>
            <path id="Vector_42" d="M26.9325 20.0879L27.3891 21.6096H28.9108L27.6934 22.2183L28.3021 23.7401L26.9325 22.827L25.7151 23.7401L26.1717 22.2183L25.1064 21.6096H26.6282L26.9325 20.0879Z" fill="white"></path>
            <path id="Vector_43" d="M26.9325 26.1748L27.3891 27.6965H28.9108L27.6934 28.6096L28.3021 30.1313L26.9325 29.2183L25.7151 30.1313L26.1717 28.6096L25.1064 27.6965H26.6282L26.9325 26.1748Z" fill="white"></path>
            <path id="Vector_44" d="M31.3464 3.95605L31.8029 5.47779H33.3247L32.1073 6.39084L32.5638 7.60823L31.3464 6.99953L30.2812 7.60823L30.5856 6.39084L29.3682 5.47779H30.8899L31.3464 3.95605Z" fill="white"></path>
            <path id="Vector_45" d="M31.3464 10.3486L31.8029 11.8704H33.3247L32.1073 12.7834L32.5638 14.3052L31.3464 13.3921L30.2812 14.3052L30.5856 12.7834L29.3682 11.8704H30.8899L31.3464 10.3486Z" fill="white"></path>
            <path id="Vector_46" d="M31.3464 16.7412L31.8029 17.9586H33.3247L32.1073 18.8716L32.5638 20.3934L31.3464 19.4803L30.2812 20.3934L30.5856 18.8716L29.3682 17.9586H30.8899L31.3464 16.7412Z" fill="white"></path>
            <path id="Vector_47" d="M31.3464 22.8291L31.8029 24.3508H33.3247L32.1073 25.2639L32.5638 26.7856L31.3464 25.8726L30.2812 26.7856L30.5856 25.2639L29.3682 24.3508H30.8899L31.3464 22.8291Z" fill="white"></path>
            <path id="Vector_48" d="M31.3464 29.5215L31.8029 30.7389H33.3247L32.1073 31.6519L32.5638 33.1737L31.3464 32.2606L30.2812 33.1737L30.5856 31.6519L29.3682 30.7389H30.8899L31.3464 29.5215Z" fill="white"></path>
            <path id="Vector_49" d="M35.7607 7.30273L36.2172 8.82447H37.7389L36.5215 9.43317L36.978 11.2593L35.7607 10.3462L34.5433 11.2593L35.152 9.43317L33.9346 8.82447H35.3041L35.7607 7.30273Z" fill="white"></path>
            <path id="Vector_50" d="M35.7607 13.6953L36.2172 15.2171H37.7389L36.5215 16.1301L36.978 17.3475L35.7607 16.7388L34.5433 17.3475L35.152 16.1301L33.9346 15.2171H35.3041L35.7607 13.6953Z" fill="white"></path>
            <path id="Vector_51" d="M35.7607 20.0879L36.2172 21.6096H37.7389L36.5215 22.2183L36.978 23.7401L35.7607 22.827L34.5433 23.7401L35.152 22.2183L33.9346 21.6096H35.3041L35.7607 20.0879Z" fill="white"></path>
            <path id="Vector_52" d="M35.7607 26.1748L36.2172 27.6965H37.7389L36.5215 28.6096L36.978 30.1313L35.7607 29.2183L34.5433 30.1313L35.152 28.6096L33.9346 27.6965H35.3041L35.7607 26.1748Z" fill="white"></path>
            <path id="Vector_53" d="M40.1757 3.95605L40.6322 5.47779H42.154L40.9366 6.39084L41.3931 7.60823L40.1757 6.99953L39.1105 7.60823L39.4148 6.39084L38.3496 5.47779H39.7192L40.1757 3.95605Z" fill="white"></path>
            <path id="Vector_54" d="M40.1757 10.3486L40.6322 11.8704H42.154L40.9366 12.7834L41.3931 14.3052L40.1757 13.3921L39.1105 14.3052L39.4148 12.7834L38.3496 11.8704H39.7192L40.1757 10.3486Z" fill="white"></path>
            <path id="Vector_55" d="M40.1757 16.7412L40.6322 17.9586H42.154L40.9366 18.8716L41.3931 20.3934L40.1757 19.4803L39.1105 20.3934L39.4148 18.8716L38.3496 17.9586H39.7192L40.1757 16.7412Z" fill="white"></path>
            <path id="Vector_56" d="M40.1757 22.8291L40.6322 24.3508H42.154L40.9366 25.2639L41.3931 26.7856L40.1757 25.8726L39.1105 26.7856L39.4148 25.2639L38.3496 24.3508H39.7192L40.1757 22.8291Z" fill="white"></path>
            <path id="Vector_57" d="M40.1757 29.5215L40.6322 30.7389H42.154L40.9366 31.6519L41.3931 33.1737L40.1757 32.2606L39.1105 33.1737L39.4148 31.6519L38.3496 30.7389H39.7192L40.1757 29.5215Z" fill="white"></path>
            <path id="Vector_58" d="M44.7361 7.30273L45.0404 8.82447H46.5622L45.3448 9.43317L45.8013 11.2593L44.7361 10.3462L43.5187 11.2593L43.823 9.43317L42.7578 8.82447H44.1274L44.7361 7.30273Z" fill="white"></path>
            <path id="Vector_59" d="M44.7361 13.6953L45.0404 15.2171H46.5622L45.3448 16.1301L45.8013 17.3475L44.7361 16.7388L43.5187 17.3475L43.823 16.1301L42.7578 15.2171H44.1274L44.7361 13.6953Z" fill="white"></path>
            <path id="Vector_60" d="M44.7361 20.0879L45.0404 21.6096H46.5622L45.3448 22.2183L45.8013 23.7401L44.7361 22.827L43.5187 23.7401L43.823 22.2183L42.7578 21.6096H44.1274L44.7361 20.0879Z" fill="white"></path>
            <path id="Vector_61" d="M44.7361 26.1748L45.0404 27.6965H46.5622L45.3448 28.6096L45.8013 30.1313L44.7361 29.2183L43.5187 30.1313L43.823 28.6096L42.7578 27.6965H44.1274L44.7361 26.1748Z" fill="white"></path>
            <path id="Vector_62" d="M48.9985 3.95605L49.455 5.47779H51.1289L49.7593 6.39084L50.2158 7.60823L48.9985 6.99953L47.9332 7.60823L48.3898 6.39084L47.1724 5.47779H48.5419L48.9985 3.95605Z" fill="white"></path>
            <path id="Vector_63" d="M48.9985 10.3486L49.455 11.8704H51.1289L49.7593 12.7834L50.2158 14.3052L48.9985 13.3921L47.9332 14.3052L48.3898 12.7834L47.1724 11.8704H48.5419L48.9985 10.3486Z" fill="white"></path>
            <path id="Vector_64" d="M48.9985 16.7412L49.455 17.9586H51.1289L49.7593 18.8716L50.2158 20.3934L48.9985 19.4803L47.9332 20.3934L48.3898 18.8716L47.1724 17.9586H48.5419L48.9985 16.7412Z" fill="white"></path>
            <path id="Vector_65" d="M48.9985 22.8291L49.455 24.3508H51.1289L49.7593 25.2639L50.2158 26.7856L48.9985 25.8726L47.9332 26.7856L48.3898 25.2639L47.1724 24.3508H48.5419L48.9985 22.8291Z" fill="white"></path>
            <path id="Vector_66" d="M48.9985 29.5215L49.455 30.7389H51.1289L49.7593 31.6519L50.2158 33.1737L48.9985 32.2606L47.9332 33.1737L48.3898 31.6519L47.1724 30.7389H48.5419L48.9985 29.5215Z" fill="white"></path>
          </g>
        </g>
      </g>
    </g>
  </g>
</svg>
