<?xml version="1.0" encoding="UTF-8"?>
<svg xmlns="http://www.w3.org/2000/svg" width="70" height="70" viewBox="0 0 70 70" fill="none">
  <mask id="mask0_89_718" style="mask-type:alpha" maskUnits="userSpaceOnUse" x="0" y="0" width="70" height="70">
    <path d="M58 0H12C5.37258 0 0 5.37258 0 12V58C0 64.6274 5.37258 70 12 70H58C64.6274 70 70 64.6274 70 58V12C70 5.37258 64.6274 0 58 0Z" fill="#C72328"></path>
  </mask>
  <g mask="url(#mask0_89_718)">
    <path d="M87.6293 0H-17.3696V69.972H87.6293V0Z" fill="#F9FAFA"></path>
    <path d="M40.4589 0H29.8008V27.9024H-17.3696V42.0969H29.8008V69.972H40.4589V42.0969H87.6293V27.9024H40.4589V0Z" fill="url(#paint0_linear_89_718)"></path>
    <path d="M53.1973 46.9624L87.6285 69.9726V64.6729L61.1086 46.9624H53.1973Z" fill="url(#paint1_linear_89_718)"></path>
    <path d="M17.6888 23.2307L-17.0721 0H-17.3696V5.17365L9.66479 23.2307H17.6888Z" fill="url(#paint2_linear_89_718)"></path>
    <path d="M-17.3027 69.9999H-9.76591L24.8235 46.9624H17.1565L-17.3027 69.9999Z" fill="url(#paint3_linear_89_718)"></path>
    <path d="M79.7727 0L44.8696 23.2307H52.7872L87.6287 0.0251997V0H79.7727Z" fill="url(#paint4_linear_89_718)"></path>
    <path d="M-17.3696 8.07275V23.264H5.37454L-17.3696 8.07275Z" fill="url(#paint5_linear_89_718)"></path>
    <path d="M26.1616 21.3274V0H-5.7749L26.1616 21.3274Z" fill="url(#paint6_linear_89_718)"></path>
    <path d="M64.5757 23.2635H87.6292V7.86572L64.5757 23.2635Z" fill="url(#paint7_linear_89_718)"></path>
    <path d="M43.79 0V21.3274L75.7265 0H43.79Z" fill="url(#paint8_linear_89_718)"></path>
    <path d="M-17.3696 46.7358V61.9271L5.37454 46.7358H-17.3696Z" fill="url(#paint9_linear_89_718)"></path>
    <path d="M26.1616 69.9983V48.6709L-5.7749 69.9983H26.1616Z" fill="url(#paint10_linear_89_718)"></path>
    <path d="M87.6292 62.1336V46.7358H64.5757L87.6292 62.1336Z" fill="url(#paint11_linear_89_718)"></path>
    <path d="M43.79 69.9983H75.7265L43.79 48.6709V69.9983Z" fill="url(#paint12_linear_89_718)"></path>
  </g>
  <defs>
    <linearGradient id="paint0_linear_89_718" x1="-17.0196" y1="-17.1498" x2="73.9612" y2="73.831" gradientUnits="userSpaceOnUse">
      <stop stop-color="#E61630"></stop>
      <stop offset="1" stop-color="#CF142B"></stop>
    </linearGradient>
    <linearGradient id="paint1_linear_89_718" x1="-9.78738" y1="-24.3823" x2="81.1935" y2="66.5979" gradientUnits="userSpaceOnUse">
      <stop stop-color="#E61630"></stop>
      <stop offset="1" stop-color="#CF142B"></stop>
    </linearGradient>
    <linearGradient id="paint2_linear_89_718" x1="-24.1064" y1="-10.0631" x2="66.8745" y2="80.9178" gradientUnits="userSpaceOnUse">
      <stop stop-color="#E61630"></stop>
      <stop offset="1" stop-color="#CF142B"></stop>
    </linearGradient>
    <linearGradient id="paint3_linear_89_718" x1="-44.445" y1="10.2758" x2="46.5359" y2="101.257" gradientUnits="userSpaceOnUse">
      <stop stop-color="#E61630"></stop>
      <stop offset="1" stop-color="#CF142B"></stop>
    </linearGradient>
    <linearGradient id="paint4_linear_89_718" x1="10.2319" y1="-44.4019" x2="101.213" y2="46.5789" gradientUnits="userSpaceOnUse">
      <stop stop-color="#E61630"></stop>
      <stop offset="1" stop-color="#CF142B"></stop>
    </linearGradient>
    <linearGradient id="paint5_linear_89_718" x1="-24.2954" y1="4.96619" x2="50.165" y2="79.4272" gradientUnits="userSpaceOnUse">
      <stop stop-color="#0031AB"></stop>
      <stop offset="1" stop-color="#00247D"></stop>
    </linearGradient>
    <linearGradient id="paint6_linear_89_718" x1="-4.56812" y1="-14.7614" x2="69.8922" y2="59.6989" gradientUnits="userSpaceOnUse">
      <stop stop-color="#0031AB"></stop>
      <stop offset="1" stop-color="#00247D"></stop>
    </linearGradient>
    <linearGradient id="paint7_linear_89_718" x1="20.6042" y1="-39.934" x2="95.0646" y2="34.5263" gradientUnits="userSpaceOnUse">
      <stop stop-color="#0031AB"></stop>
      <stop offset="1" stop-color="#00247D"></stop>
    </linearGradient>
    <linearGradient id="paint8_linear_89_718" x1="14.8831" y1="-34.2114" x2="89.3435" y2="40.2489" gradientUnits="userSpaceOnUse">
      <stop stop-color="#0031AB"></stop>
      <stop offset="1" stop-color="#00247D"></stop>
    </linearGradient>
    <linearGradient id="paint9_linear_89_718" x1="-39.8296" y1="20.5001" x2="34.6314" y2="94.9604" gradientUnits="userSpaceOnUse">
      <stop stop-color="#0031AB"></stop>
      <stop offset="1" stop-color="#00247D"></stop>
    </linearGradient>
    <linearGradient id="paint10_linear_89_718" x1="-34.2359" y1="14.9053" x2="40.2244" y2="89.3657" gradientUnits="userSpaceOnUse">
      <stop stop-color="#0031AB"></stop>
      <stop offset="1" stop-color="#00247D"></stop>
    </linearGradient>
    <linearGradient id="paint11_linear_89_718" x1="5.01819" y1="-24.3484" x2="79.4792" y2="50.1126" gradientUnits="userSpaceOnUse">
      <stop stop-color="#0031AB"></stop>
      <stop offset="1" stop-color="#00247D"></stop>
    </linearGradient>
    <linearGradient id="paint12_linear_89_718" x1="-14.7846" y1="-4.54465" x2="59.6764" y2="69.9164" gradientUnits="userSpaceOnUse">
      <stop stop-color="#0031AB"></stop>
      <stop offset="1" stop-color="#00247D"></stop>
    </linearGradient>
  </defs>
</svg>
